<svg xmlns="http://www.w3.org/2000/svg" viewBox="0 0 100 100"><rect width="100" height="100" rx="22" fill="#111318"/><rect x="28.89" y="12" width="8.44" height="8.44" fill="#fff"/><rect x="37.33" y="12" width="8.44" height="8.44" fill="#fff"/><rect x="45.78" y="12" width="8.44" height="8.44" fill="#fff"/><rect x="54.22" y="12" width="8.44" height="8.44" fill="#fff"/><rect x="62.67" y="12" width="8.44" height="8.44" fill="#fff"/><rect x="20.44" y="20.44" width="8.44" height="8.44" fill="#fff"/><rect x="28.89" y="20.44" width="8.44" height="8.44" fill="#fff"/><rect x="62.67" y="20.44" width="8.44" height="8.44" fill="#fff"/><rect x="71.11" y="20.44" width="8.44" height="8.44" fill="#fff"/><rect x="20.44" y="28.89" width="8.44" height="8.44" fill="#fff"/><rect x="28.89" y="28.89" width="8.44" height="8.44" fill="#fff"/><rect x="20.44" y="37.33" width="8.44" height="8.44" fill="#fff"/><rect x="28.89" y="37.33" width="8.44" height="8.44" fill="#fff"/><rect x="28.89" y="45.78" width="8.44" height="8.44" fill="#fff"/><rect x="37.33" y="45.78" width="8.44" height="8.44" fill="#fff"/><rect x="45.78" y="45.78" width="8.44" height="8.44" fill="#fff"/><rect x="54.22" y="45.78" width="8.44" height="8.44" fill="#fff"/><rect x="62.67" y="45.78" width="8.44" height="8.44" fill="#fff"/><rect x="62.67" y="54.22" width="8.44" height="8.44" fill="#fff"/><rect x="71.11" y="54.22" width="8.44" height="8.44" fill="#fff"/><rect x="62.67" y="62.67" width="8.44" height="8.44" fill="#fff"/><rect x="71.11" y="62.67" width="8.44" height="8.44" fill="#fff"/><rect x="20.44" y="71.11" width="8.44" height="8.44" fill="#fff"/><rect x="28.89" y="71.11" width="8.44" height="8.44" fill="#fff"/><rect x="62.67" y="71.11" width="8.44" height="8.44" fill="#fff"/><rect x="71.11" y="71.11" width="8.44" height="8.44" fill="#fff"/><rect x="28.89" y="79.56" width="8.44" height="8.44" fill="#fff"/><rect x="37.33" y="79.56" width="8.44" height="8.44" fill="#fff"/><rect x="45.78" y="79.56" width="8.44" height="8.44" fill="#fff"/><rect x="54.22" y="79.56" width="8.44" height="8.44" fill="#fff"/><rect x="62.67" y="79.56" width="8.44" height="8.44" fill="#fff"/></svg>
