<svg xmlns="http://www.w3.org/2000/svg" viewBox="0 0 100 100"><rect width="100" height="100" fill="#111318"/><rect x="34.44" y="22" width="6.22" height="6.22" fill="#fff"/><rect x="40.67" y="22" width="6.22" height="6.22" fill="#fff"/><rect x="46.89" y="22" width="6.22" height="6.22" fill="#fff"/><rect x="53.11" y="22" width="6.22" height="6.22" fill="#fff"/><rect x="59.33" y="22" width="6.22" height="6.22" fill="#fff"/><rect x="28.22" y="28.22" width="6.22" height="6.22" fill="#fff"/><rect x="34.44" y="28.22" width="6.22" height="6.22" fill="#fff"/><rect x="59.33" y="28.22" width="6.22" height="6.22" fill="#fff"/><rect x="65.56" y="28.22" width="6.22" height="6.22" fill="#fff"/><rect x="28.22" y="34.44" width="6.22" height="6.22" fill="#fff"/><rect x="34.44" y="34.44" width="6.22" height="6.22" fill="#fff"/><rect x="28.22" y="40.67" width="6.22" height="6.22" fill="#fff"/><rect x="34.44" y="40.67" width="6.22" height="6.22" fill="#fff"/><rect x="34.44" y="46.89" width="6.22" height="6.22" fill="#fff"/><rect x="40.67" y="46.89" width="6.22" height="6.22" fill="#fff"/><rect x="46.89" y="46.89" width="6.22" height="6.22" fill="#fff"/><rect x="53.11" y="46.89" width="6.22" height="6.22" fill="#fff"/><rect x="59.33" y="46.89" width="6.22" height="6.22" fill="#fff"/><rect x="59.33" y="53.11" width="6.22" height="6.22" fill="#fff"/><rect x="65.56" y="53.11" width="6.22" height="6.22" fill="#fff"/><rect x="59.33" y="59.33" width="6.22" height="6.22" fill="#fff"/><rect x="65.56" y="59.33" width="6.22" height="6.22" fill="#fff"/><rect x="28.22" y="65.56" width="6.22" height="6.22" fill="#fff"/><rect x="34.44" y="65.56" width="6.22" height="6.22" fill="#fff"/><rect x="59.33" y="65.56" width="6.22" height="6.22" fill="#fff"/><rect x="65.56" y="65.56" width="6.22" height="6.22" fill="#fff"/><rect x="34.44" y="71.78" width="6.22" height="6.22" fill="#fff"/><rect x="40.67" y="71.78" width="6.22" height="6.22" fill="#fff"/><rect x="46.89" y="71.78" width="6.22" height="6.22" fill="#fff"/><rect x="53.11" y="71.78" width="6.22" height="6.22" fill="#fff"/><rect x="59.33" y="71.78" width="6.22" height="6.22" fill="#fff"/></svg>
